<svg width="39" height="39" viewBox="0 0 39 39" fill="none" xmlns="http://www.w3.org/2000/svg">
<path d="M37.5375 7.80487V1.56C37.5375 0.697125 36.8404 0 35.9775 0H19.5H3.02253C2.15965 0 1.46253 0.697125 1.46253 1.56V7.80487C0.648405 7.85362 3.02052e-05 8.53124 3.02052e-05 9.35999V15.7804C-0.00309177 16.9603 0.235831 18.1284 0.70203 19.2124C0.911655 19.7096 1.17003 20.1776 1.46253 20.6212V37.44C1.46253 38.298 2.15965 39 3.02253 39H35.9775C36.8404 39 37.5375 38.3029 37.5375 37.44V20.6212C37.8346 20.1765 38.0892 19.7048 38.298 19.2124C38.7611 18.1252 39 16.9699 39 15.7804V9.35999C39 8.53124 38.3516 7.85362 37.5375 7.80487ZM19.5098 3.43687L34.0275 5.28937V7.79999H4.97253V5.28937L19.5098 3.43687ZM34.0275 35.4949H25.74V28.86C25.74 27.9971 25.0429 27.3 24.18 27.3H14.82C13.9571 27.3 13.26 27.9971 13.26 28.86V35.4949H4.97253V23.6876C5.1139 23.7559 5.26015 23.8241 5.41128 23.8826C6.4984 24.3409 7.65377 24.57 8.84327 24.57C10.0328 24.57 11.1833 24.3409 12.2753 23.8826C12.948 23.5999 13.5818 23.2391 14.1619 22.8052C14.1716 22.8004 14.1814 22.8004 14.1911 22.8052C14.7731 23.241 15.4068 23.6028 16.0778 23.8826C17.1649 24.3409 18.3203 24.57 19.5098 24.57C20.6993 24.57 21.8498 24.3409 22.9418 23.8826C23.6145 23.5999 24.2483 23.2391 24.8284 22.8052C24.8381 22.8004 24.8479 22.8004 24.8576 22.8052C25.4396 23.241 26.0733 23.6028 26.7443 23.8826C27.8314 24.3409 28.9868 24.57 30.1763 24.57C31.3658 24.57 32.5163 24.3409 33.6083 23.8826C33.7545 23.8192 33.9008 23.7559 34.047 23.6876V35.4949H34.0275ZM35.49 15.7804C35.49 18.6956 33.1013 21.06 30.1616 21.06C28.1726 21.06 26.4371 19.9826 25.5206 18.3836C25.3793 18.1399 25.1696 13.2844 24.8869 13.2844H24.8576C24.5798 13.2844 24.2775 18.1399 24.1361 18.3836C23.6684 19.1993 22.9931 19.8766 22.1788 20.3467C21.3645 20.8167 20.4403 21.0629 19.5 21.06C17.5159 21.06 15.7853 19.9875 14.8688 18.3934C14.7225 18.1447 14.4788 13.2844 14.1911 13.2844C13.9035 13.2844 13.6159 18.1447 13.4745 18.3934C13.0041 19.2059 12.3279 19.8802 11.514 20.3483C10.7001 20.8164 9.7773 21.0619 8.8384 21.06C5.89878 21.06 3.51003 18.6956 3.51003 15.7804V11.3344C3.51003 11.3197 3.51978 11.31 3.5344 11.31H35.4656C35.4803 11.31 35.49 11.3197 35.49 11.3344V15.7804Z" fill="#0E2E61"/>
<path d="M11.7858 15.033C11.7858 15.033 11.4258 15.36 10.8241 15.7501C10.66 14.7959 10.2047 13.618 9.30318 12.1797C9.30318 12.1797 9.00837 13.7225 8.02653 15.1827C7.59807 14.5218 7.41424 14.0029 7.41424 14.0029C4.32492 17.0819 6.88577 19.2637 8.49407 19.2637C10.5583 19.2637 12.3749 18.2765 11.7858 15.033ZM8.59986 19.0667C8.15003 19.0667 7.14599 18.7531 6.66062 17.3096C6.66062 17.3096 6.83501 17.3988 7.1186 17.5021C7.13017 17.0031 7.33077 16.3644 7.844 15.5587C7.844 15.5587 7.97269 15.9047 8.27258 16.3453C8.95985 15.3717 9.16623 14.3428 9.16623 14.3428C9.79741 15.3021 10.1161 16.0876 10.2311 16.7238C10.6521 16.4636 10.9042 16.2454 10.9042 16.2454C10.8755 16.8857 10.7519 17.3875 10.573 17.7797C10.8546 17.7335 11.0325 17.6844 11.0325 17.6844C10.2217 18.8294 9.40354 19.0667 8.59986 19.0667Z" fill="#600D2D"/>
<path d="M7.63572 17.1212C7.63572 17.1212 7.9669 17.5729 8.21873 17.4638C8.21873 17.4638 8.69749 16.7199 9.38452 16.3063C9.38452 16.3063 9.24343 17.4405 9.40565 17.6409C9.62077 17.9075 10.2037 17.3453 10.2037 17.3453C10.2037 18.0155 9.46799 18.8599 8.80977 18.8599C8.15628 18.8599 7.22981 18.133 7.63572 17.1212ZM10.9348 14.0827C11.1829 13.7236 11.3515 13.3558 11.3515 13.3558C11.7675 14.0377 11.522 14.4523 11.3392 14.5878C11.094 14.7698 10.6485 14.4977 10.9348 14.0827M6.40783 13.9661C6.16509 13.5499 6.13782 13.0313 6.13782 13.0313C5.54477 13.9223 5.77641 14.4076 5.9737 14.5545C6.23841 14.7516 6.688 14.447 6.40783 13.9661M7.78756 13.0405C7.81778 12.7608 7.70054 12.4707 7.70054 12.4707C8.26301 12.8325 8.25628 13.1476 8.18296 13.2702C8.08414 13.4348 7.75249 13.3636 7.78756 13.0405" fill="#600D2D"/>
<path d="M33.0408 15.033C33.0408 15.033 32.6808 15.36 32.0792 15.7501C31.9151 14.7959 31.4598 13.618 30.5582 12.1797C30.5582 12.1797 30.2634 13.7225 29.2816 15.1827C28.8531 14.5218 28.6693 14.0029 28.6693 14.0029C25.58 17.0819 28.1408 19.2637 29.7491 19.2637C31.8134 19.2637 33.63 18.2765 33.0408 15.033ZM29.8549 19.0667C29.4051 19.0667 28.4011 18.7531 27.9157 17.3096C27.9157 17.3096 28.0901 17.3988 28.3737 17.5021C28.3852 17.0031 28.5858 16.3644 29.0991 15.5587C29.0991 15.5587 29.2278 15.9047 29.5276 16.3453C30.2149 15.3717 30.4213 14.3428 30.4213 14.3428C31.0525 15.3021 31.3711 16.0876 31.4861 16.7238C31.9072 16.4636 32.1592 16.2454 32.1592 16.2454C32.1305 16.8857 32.0069 17.3875 31.8281 17.7797C32.1096 17.7335 32.2876 17.6844 32.2876 17.6844C31.4768 18.8294 30.6586 19.0667 29.8549 19.0667Z" fill="#600D2D"/>
<path d="M28.8908 17.1212C28.8908 17.1212 29.222 17.5729 29.4738 17.4638C29.4738 17.4638 29.9526 16.7199 30.6396 16.3063C30.6396 16.3063 30.4985 17.4405 30.6607 17.6409C30.8758 17.9075 31.4587 17.3453 31.4587 17.3453C31.4587 18.0155 30.7231 18.8599 30.0648 18.8599C29.4113 18.8599 28.4849 18.133 28.8908 17.1212ZM32.1899 14.0827C32.438 13.7236 32.6066 13.3558 32.6066 13.3558C33.0225 14.0377 32.7771 14.4523 32.5943 14.5878C32.3491 14.7698 31.9036 14.4977 32.1899 14.0827M27.6629 13.9661C27.4202 13.5499 27.3929 13.0313 27.3929 13.0313C26.7998 13.9223 27.0315 14.4076 27.2288 14.5545C27.4935 14.7516 27.9431 14.447 27.6629 13.9661M29.0426 13.0405C29.0728 12.7608 28.9556 12.4707 28.9556 12.4707C29.5181 12.8325 29.5113 13.1476 29.438 13.2702C29.3392 13.4348 29.0076 13.3636 29.0426 13.0405" fill="#600D2D"/>
</svg>
