<svg width="85" height="39" viewBox="0 0 85 39" fill="none" xmlns="http://www.w3.org/2000/svg">
<path d="M50.525 16.125C50.665 16.165 50.845 16.195 51.065 16.215C51.285 16.225 51.495 16.23 51.695 16.23C52.095 16.23 52.425 16.15 52.685 15.99C52.955 15.82 53.09 15.56 53.09 15.21C53.09 14.88 52.98 14.645 52.76 14.505C52.54 14.365 52.205 14.295 51.755 14.295H50.525V16.125ZM50.525 12.465H51.62C52.05 12.465 52.36 12.385 52.55 12.225C52.75 12.065 52.85 11.83 52.85 11.52C52.85 11.25 52.735 11.035 52.505 10.875C52.285 10.715 51.95 10.635 51.5 10.635C51.35 10.635 51.175 10.64 50.975 10.65C50.785 10.66 50.635 10.675 50.525 10.695V12.465ZM51.5 18.24C51.33 18.24 51.13 18.235 50.9 18.225C50.67 18.215 50.43 18.195 50.18 18.165C49.94 18.135 49.7 18.095 49.46 18.045C49.22 18.005 49 17.945 48.8 17.865C48.25 17.655 47.975 17.29 47.975 16.77V9.765C47.975 9.555 48.03 9.395 48.14 9.285C48.26 9.165 48.42 9.07 48.62 9C48.96 8.88 49.385 8.795 49.895 8.745C50.405 8.685 50.93 8.655 51.47 8.655C52.75 8.655 53.735 8.87 54.425 9.3C55.115 9.73 55.46 10.395 55.46 11.295C55.46 11.745 55.33 12.135 55.07 12.465C54.81 12.785 54.46 13.02 54.02 13.17C54.52 13.31 54.935 13.565 55.265 13.935C55.605 14.305 55.775 14.77 55.775 15.33C55.775 16.32 55.405 17.055 54.665 17.535C53.935 18.005 52.88 18.24 51.5 18.24ZM56.9939 10.815C57.0939 10.785 57.2489 10.755 57.4589 10.725C57.6789 10.695 57.9039 10.68 58.1339 10.68C58.3539 10.68 58.5489 10.695 58.7189 10.725C58.8989 10.755 59.0489 10.815 59.1689 10.905C59.2889 10.995 59.3789 11.12 59.4389 11.28C59.5089 11.43 59.5439 11.63 59.5439 11.88V15.105C59.5439 15.515 59.6439 15.81 59.8439 15.99C60.0439 16.16 60.3339 16.245 60.7139 16.245C60.9439 16.245 61.1289 16.225 61.2689 16.185C61.4189 16.145 61.5339 16.105 61.6139 16.065V10.815C61.7139 10.785 61.8689 10.755 62.0789 10.725C62.2989 10.695 62.5239 10.68 62.7539 10.68C62.9739 10.68 63.1689 10.695 63.3389 10.725C63.5189 10.755 63.6689 10.815 63.7889 10.905C63.9089 10.995 63.9989 11.12 64.0589 11.28C64.1289 11.43 64.1639 11.63 64.1639 11.88V16.44C64.1639 16.94 63.9539 17.315 63.5339 17.565C63.1839 17.785 62.7639 17.95 62.2739 18.06C61.7939 18.18 61.2689 18.24 60.6989 18.24C60.1589 18.24 59.6589 18.18 59.1989 18.06C58.7489 17.94 58.3589 17.755 58.0289 17.505C57.6989 17.255 57.4439 16.935 57.2639 16.545C57.0839 16.145 56.9939 15.665 56.9939 15.105V10.815ZM68.2743 17.985C68.1743 18.015 68.0143 18.045 67.7943 18.075C67.5843 18.105 67.3643 18.12 67.1343 18.12C66.9143 18.12 66.7143 18.105 66.5343 18.075C66.3643 18.045 66.2193 17.985 66.0993 17.895C65.9793 17.805 65.8843 17.685 65.8143 17.535C65.7543 17.375 65.7243 17.17 65.7243 16.92V12.42C65.7243 12.19 65.7643 11.995 65.8443 11.835C65.9343 11.665 66.0593 11.515 66.2193 11.385C66.3793 11.255 66.5743 11.14 66.8043 11.04C67.0443 10.93 67.2993 10.835 67.5693 10.755C67.8393 10.675 68.1193 10.615 68.4093 10.575C68.6993 10.525 68.9893 10.5 69.2793 10.5C69.7593 10.5 70.1393 10.595 70.4193 10.785C70.6993 10.965 70.8393 11.265 70.8393 11.685C70.8393 11.825 70.8193 11.965 70.7793 12.105C70.7393 12.235 70.6893 12.355 70.6293 12.465C70.4193 12.465 70.2043 12.475 69.9843 12.495C69.7643 12.515 69.5493 12.545 69.3393 12.585C69.1293 12.625 68.9293 12.67 68.7393 12.72C68.5593 12.76 68.4043 12.81 68.2743 12.87V17.985ZM76.3648 13.38C76.3648 13.07 76.2748 12.845 76.0948 12.705C75.9248 12.555 75.6898 12.48 75.3898 12.48C75.1898 12.48 74.9898 12.505 74.7898 12.555C74.5998 12.605 74.4348 12.68 74.2948 12.78V17.985C74.1948 18.015 74.0348 18.045 73.8148 18.075C73.6048 18.105 73.3848 18.12 73.1548 18.12C72.9348 18.12 72.7348 18.105 72.5548 18.075C72.3848 18.045 72.2398 17.985 72.1198 17.895C71.9998 17.805 71.9048 17.685 71.8348 17.535C71.7748 17.375 71.7448 17.17 71.7448 16.92V12.42C71.7448 12.15 71.7998 11.93 71.9098 11.76C72.0298 11.59 72.1898 11.435 72.3898 11.295C72.7298 11.055 73.1548 10.86 73.6648 10.71C74.1848 10.56 74.7598 10.485 75.3898 10.485C76.5198 10.485 77.3898 10.735 77.9998 11.235C78.6098 11.725 78.9148 12.41 78.9148 13.29V17.985C78.8148 18.015 78.6548 18.045 78.4348 18.075C78.2248 18.105 78.0048 18.12 77.7748 18.12C77.5548 18.12 77.3548 18.105 77.1748 18.075C77.0048 18.045 76.8598 17.985 76.7398 17.895C76.6198 17.805 76.5248 17.685 76.4548 17.535C76.3948 17.375 76.3648 17.17 76.3648 16.92V13.38Z" fill="#0E2E61"/>
<path d="M42.555 26.385C42.115 26.235 41.715 26.085 41.355 25.935C40.995 25.775 40.685 25.585 40.425 25.365C40.165 25.145 39.96 24.885 39.81 24.585C39.67 24.275 39.6 23.9 39.6 23.46C39.6 22.61 39.925 21.93 40.575 21.42C41.235 20.91 42.155 20.655 43.335 20.655C43.765 20.655 44.165 20.685 44.535 20.745C44.905 20.805 45.22 20.9 45.48 21.03C45.75 21.15 45.96 21.31 46.11 21.51C46.26 21.7 46.335 21.925 46.335 22.185C46.335 22.445 46.275 22.67 46.155 22.86C46.035 23.04 45.89 23.195 45.72 23.325C45.5 23.185 45.205 23.065 44.835 22.965C44.465 22.855 44.06 22.8 43.62 22.8C43.17 22.8 42.84 22.865 42.63 22.995C42.42 23.115 42.315 23.27 42.315 23.46C42.315 23.61 42.38 23.735 42.51 23.835C42.64 23.925 42.835 24.01 43.095 24.09L43.89 24.345C44.83 24.645 45.55 25.03 46.05 25.5C46.56 25.96 46.815 26.59 46.815 27.39C46.815 28.24 46.48 28.93 45.81 29.46C45.14 29.98 44.155 30.24 42.855 30.24C42.395 30.24 41.965 30.2 41.565 30.12C41.175 30.05 40.83 29.945 40.53 29.805C40.24 29.655 40.01 29.475 39.84 29.265C39.68 29.045 39.6 28.795 39.6 28.515C39.6 28.225 39.685 27.98 39.855 27.78C40.025 27.57 40.21 27.41 40.41 27.3C40.69 27.52 41.03 27.71 41.43 27.87C41.84 28.03 42.285 28.11 42.765 28.11C43.255 28.11 43.6 28.035 43.8 27.885C44 27.735 44.1 27.56 44.1 27.36C44.1 27.16 44.02 27.01 43.86 26.91C43.7 26.8 43.475 26.695 43.185 26.595L42.555 26.385ZM55.2417 29.985C55.1417 30.015 54.9817 30.045 54.7617 30.075C54.5517 30.105 54.3317 30.12 54.1017 30.12C53.8817 30.12 53.6817 30.105 53.5017 30.075C53.3317 30.045 53.1867 29.985 53.0667 29.895C52.9467 29.805 52.8517 29.685 52.7817 29.535C52.7217 29.375 52.6917 29.17 52.6917 28.92V25.59C52.6917 25.18 52.5867 24.895 52.3767 24.735C52.1767 24.565 51.9267 24.48 51.6267 24.48C51.4267 24.48 51.2367 24.505 51.0567 24.555C50.8767 24.605 50.7317 24.665 50.6217 24.735V29.985C50.5217 30.015 50.3617 30.045 50.1417 30.075C49.9317 30.105 49.7117 30.12 49.4817 30.12C49.2617 30.12 49.0617 30.105 48.8817 30.075C48.7117 30.045 48.5667 29.985 48.4467 29.895C48.3267 29.805 48.2317 29.685 48.1617 29.535C48.1017 29.375 48.0717 29.17 48.0717 28.92V20.22C48.1817 20.2 48.3417 20.175 48.5517 20.145C48.7717 20.105 48.9917 20.085 49.2117 20.085C49.4317 20.085 49.6267 20.1 49.7967 20.13C49.9767 20.16 50.1267 20.22 50.2467 20.31C50.3667 20.4 50.4567 20.525 50.5167 20.685C50.5867 20.835 50.6217 21.035 50.6217 21.285V22.755C50.7517 22.705 50.9467 22.65 51.2067 22.59C51.4767 22.52 51.7717 22.485 52.0917 22.485C53.0817 22.485 53.8517 22.735 54.4017 23.235C54.9617 23.725 55.2417 24.46 55.2417 25.44V29.985ZM64.3611 26.355C64.3611 26.975 64.2661 27.53 64.0761 28.02C63.8861 28.5 63.6161 28.905 63.2661 29.235C62.9261 29.565 62.5161 29.815 62.0361 29.985C61.5561 30.155 61.0211 30.24 60.4311 30.24C59.8411 30.24 59.3061 30.15 58.8261 29.97C58.3461 29.79 57.9311 29.535 57.5811 29.205C57.2411 28.865 56.9761 28.455 56.7861 27.975C56.5961 27.495 56.5011 26.955 56.5011 26.355C56.5011 25.765 56.5961 25.23 56.7861 24.75C56.9761 24.27 57.2411 23.865 57.5811 23.535C57.9311 23.195 58.3461 22.935 58.8261 22.755C59.3061 22.575 59.8411 22.485 60.4311 22.485C61.0211 22.485 61.5561 22.58 62.0361 22.77C62.5161 22.95 62.9261 23.21 63.2661 23.55C63.6161 23.88 63.8861 24.285 64.0761 24.765C64.2661 25.245 64.3611 25.775 64.3611 26.355ZM59.1111 26.355C59.1111 26.965 59.2261 27.435 59.4561 27.765C59.6961 28.085 60.0261 28.245 60.4461 28.245C60.8661 28.245 61.1861 28.08 61.4061 27.75C61.6361 27.42 61.7511 26.955 61.7511 26.355C61.7511 25.755 61.6361 25.295 61.4061 24.975C61.1761 24.645 60.8511 24.48 60.4311 24.48C60.0111 24.48 59.6861 24.645 59.4561 24.975C59.2261 25.295 59.1111 25.755 59.1111 26.355ZM68.9502 22.485C69.5502 22.485 70.1052 22.565 70.6152 22.725C71.1352 22.875 71.5802 23.11 71.9502 23.43C72.3202 23.75 72.6102 24.155 72.8202 24.645C73.0302 25.125 73.1352 25.7 73.1352 26.37C73.1352 27.01 73.0452 27.57 72.8652 28.05C72.6852 28.53 72.4302 28.935 72.1002 29.265C71.7702 29.585 71.3702 29.825 70.9002 29.985C70.4402 30.145 69.9252 30.225 69.3552 30.225C68.9252 30.225 68.5252 30.16 68.1552 30.03V32.52C68.0552 32.55 67.8952 32.58 67.6752 32.61C67.4552 32.65 67.2302 32.67 67.0002 32.67C66.7802 32.67 66.5802 32.655 66.4002 32.625C66.2302 32.595 66.0852 32.535 65.9652 32.445C65.8452 32.355 65.7552 32.23 65.6952 32.07C65.6352 31.92 65.6052 31.72 65.6052 31.47V24.27C65.6052 24 65.6602 23.78 65.7702 23.61C65.8902 23.44 66.0502 23.285 66.2502 23.145C66.5602 22.945 66.9452 22.785 67.4052 22.665C67.8652 22.545 68.3802 22.485 68.9502 22.485ZM68.9802 28.215C70.0102 28.215 70.5252 27.6 70.5252 26.37C70.5252 25.73 70.3952 25.255 70.1352 24.945C69.8852 24.635 69.5202 24.48 69.0402 24.48C68.8502 24.48 68.6802 24.505 68.5302 24.555C68.3802 24.595 68.2502 24.645 68.1402 24.705V28.005C68.2602 28.065 68.3902 28.115 68.5302 28.155C68.6702 28.195 68.8202 28.215 68.9802 28.215Z" fill="#600D2D"/>
<path d="M37.5375 7.80487V1.56C37.5375 0.697125 36.8404 0 35.9775 0H19.5H3.02253C2.15965 0 1.46253 0.697125 1.46253 1.56V7.80487C0.648405 7.85362 3.02052e-05 8.53124 3.02052e-05 9.35999V15.7804C-0.00309177 16.9603 0.235831 18.1284 0.70203 19.2124C0.911655 19.7096 1.17003 20.1776 1.46253 20.6212V37.44C1.46253 38.298 2.15965 39 3.02253 39H35.9775C36.8404 39 37.5375 38.3029 37.5375 37.44V20.6212C37.8346 20.1765 38.0892 19.7048 38.298 19.2124C38.7611 18.1252 39 16.9699 39 15.7804V9.35999C39 8.53124 38.3516 7.85362 37.5375 7.80487ZM19.5098 3.43687L34.0275 5.28937V7.79999H4.97253V5.28937L19.5098 3.43687ZM34.0275 35.4949H25.74V28.86C25.74 27.9971 25.0429 27.3 24.18 27.3H14.82C13.9571 27.3 13.26 27.9971 13.26 28.86V35.4949H4.97253V23.6876C5.1139 23.7559 5.26015 23.8241 5.41128 23.8826C6.4984 24.3409 7.65377 24.57 8.84327 24.57C10.0328 24.57 11.1833 24.3409 12.2753 23.8826C12.948 23.5999 13.5818 23.2391 14.1619 22.8052C14.1716 22.8004 14.1814 22.8004 14.1911 22.8052C14.7731 23.241 15.4068 23.6028 16.0778 23.8826C17.1649 24.3409 18.3203 24.57 19.5098 24.57C20.6993 24.57 21.8498 24.3409 22.9418 23.8826C23.6145 23.5999 24.2483 23.2391 24.8284 22.8052C24.8381 22.8004 24.8479 22.8004 24.8576 22.8052C25.4396 23.241 26.0733 23.6028 26.7443 23.8826C27.8314 24.3409 28.9868 24.57 30.1763 24.57C31.3658 24.57 32.5163 24.3409 33.6083 23.8826C33.7545 23.8192 33.9008 23.7559 34.047 23.6876V35.4949H34.0275ZM35.49 15.7804C35.49 18.6956 33.1013 21.06 30.1616 21.06C28.1726 21.06 26.4371 19.9826 25.5206 18.3836C25.3793 18.1399 25.1696 13.2844 24.8869 13.2844H24.8576C24.5798 13.2844 24.2775 18.1399 24.1361 18.3836C23.6684 19.1993 22.9931 19.8766 22.1788 20.3467C21.3645 20.8167 20.4403 21.0629 19.5 21.06C17.5159 21.06 15.7853 19.9875 14.8688 18.3934C14.7225 18.1447 14.4788 13.2844 14.1911 13.2844C13.9035 13.2844 13.6159 18.1447 13.4745 18.3934C13.0041 19.2059 12.3279 19.8802 11.514 20.3483C10.7001 20.8164 9.7773 21.0619 8.8384 21.06C5.89878 21.06 3.51003 18.6956 3.51003 15.7804V11.3344C3.51003 11.3197 3.51978 11.31 3.5344 11.31H35.4656C35.4803 11.31 35.49 11.3197 35.49 11.3344V15.7804Z" fill="#0E2E61"/>
<path d="M11.7858 15.033C11.7858 15.033 11.4258 15.36 10.8242 15.7501C10.6601 14.7959 10.2048 13.618 9.30324 12.1797C9.30324 12.1797 9.00843 13.7225 8.02659 15.1827C7.59813 14.5218 7.4143 14.0029 7.4143 14.0029C4.32498 17.0819 6.88584 19.2637 8.49413 19.2637C10.5584 19.2637 12.375 18.2765 11.7858 15.033ZM8.59992 19.0667C8.15009 19.0667 7.14605 18.7531 6.66068 17.3096C6.66068 17.3096 6.83507 17.3988 7.11866 17.5021C7.13023 17.0031 7.33083 16.3644 7.84406 15.5587C7.84406 15.5587 7.97275 15.9047 8.27264 16.3453C8.95991 15.3717 9.16629 14.3428 9.16629 14.3428C9.79747 15.3021 10.1161 16.0876 10.2311 16.7238C10.6522 16.4636 10.9042 16.2454 10.9042 16.2454C10.8755 16.8857 10.7519 17.3875 10.573 17.7797C10.8546 17.7335 11.0326 17.6844 11.0326 17.6844C10.2218 18.8294 9.4036 19.0667 8.59992 19.0667Z" fill="#600D2D"/>
<path d="M7.63566 17.1212C7.63566 17.1212 7.96684 17.5729 8.21867 17.4638C8.21867 17.4638 8.69743 16.7199 9.38446 16.3063C9.38446 16.3063 9.24337 17.4405 9.40559 17.6409C9.62071 17.9075 10.2036 17.3453 10.2036 17.3453C10.2036 18.0155 9.46793 18.8599 8.80971 18.8599C8.15622 18.8599 7.22975 18.133 7.63566 17.1212ZM10.9348 14.0827C11.1828 13.7236 11.3514 13.3558 11.3514 13.3558C11.7674 14.0377 11.5219 14.4523 11.3392 14.5878C11.0939 14.7698 10.6485 14.4977 10.9348 14.0827M6.40777 13.9661C6.16503 13.5499 6.13775 13.0313 6.13775 13.0313C5.54471 13.9223 5.77635 14.4076 5.97364 14.5545C6.23835 14.7516 6.68794 14.447 6.40777 13.9661M7.78749 13.0405C7.81772 12.7608 7.70048 12.4707 7.70048 12.4707C8.26295 12.8325 8.25622 13.1476 8.1829 13.2702C8.08408 13.4348 7.75243 13.3636 7.78749 13.0405" fill="#600D2D"/>
<path d="M33.0407 15.033C33.0407 15.033 32.6807 15.36 32.0791 15.7501C31.9149 14.7959 31.4597 13.618 30.5581 12.1797C30.5581 12.1797 30.2633 13.7225 29.2815 15.1827C28.853 14.5218 28.6692 14.0029 28.6692 14.0029C25.5799 17.0819 28.1407 19.2637 29.749 19.2637C31.8133 19.2637 33.6299 18.2765 33.0407 15.033ZM29.8548 19.0667C29.405 19.0667 28.4009 18.7531 27.9156 17.3096C27.9156 17.3096 28.0899 17.3988 28.3735 17.5021C28.3851 17.0031 28.5857 16.3644 29.0989 15.5587C29.0989 15.5587 29.2276 15.9047 29.5275 16.3453C30.2148 15.3717 30.4212 14.3428 30.4212 14.3428C31.0524 15.3021 31.371 16.0876 31.486 16.7238C31.907 16.4636 32.1591 16.2454 32.1591 16.2454C32.1304 16.8857 32.0068 17.3875 31.8279 17.7797C32.1095 17.7335 32.2874 17.6844 32.2874 17.6844C31.4767 18.8294 30.6585 19.0667 29.8548 19.0667Z" fill="#600D2D"/>
<path d="M28.8908 17.1212C28.8908 17.1212 29.222 17.5729 29.4738 17.4638C29.4738 17.4638 29.9526 16.7199 30.6396 16.3063C30.6396 16.3063 30.4985 17.4405 30.6607 17.6409C30.8758 17.9075 31.4587 17.3453 31.4587 17.3453C31.4587 18.0155 30.7231 18.8599 30.0648 18.8599C29.4113 18.8599 28.4849 18.133 28.8908 17.1212ZM32.1899 14.0827C32.438 13.7236 32.6066 13.3558 32.6066 13.3558C33.0225 14.0377 32.7771 14.4523 32.5943 14.5878C32.3491 14.7698 31.9036 14.4977 32.1899 14.0827M27.6629 13.9661C27.4202 13.5499 27.3929 13.0313 27.3929 13.0313C26.7998 13.9223 27.0315 14.4076 27.2288 14.5545C27.4935 14.7516 27.9431 14.447 27.6629 13.9661M29.0426 13.0405C29.0728 12.7608 28.9556 12.4707 28.9556 12.4707C29.5181 12.8325 29.5113 13.1476 29.438 13.2702C29.3392 13.4348 29.0076 13.3636 29.0426 13.0405" fill="#600D2D"/>
</svg>
