<svg width="39" height="39" viewBox="0 0 39 39" fill="none" xmlns="http://www.w3.org/2000/svg">
<path d="M37.5375 7.80487V1.56C37.5375 0.697125 36.8404 0 35.9775 0H19.5H3.02253C2.15965 0 1.46253 0.697125 1.46253 1.56V7.80487C0.648405 7.85362 3.02052e-05 8.53124 3.02052e-05 9.35999V15.7804C-0.00309177 16.9603 0.235831 18.1284 0.70203 19.2124C0.911655 19.7096 1.17003 20.1776 1.46253 20.6212V37.44C1.46253 38.298 2.15965 39 3.02253 39H35.9775C36.8404 39 37.5375 38.3029 37.5375 37.44V20.6212C37.8346 20.1765 38.0892 19.7048 38.298 19.2124C38.7611 18.1252 39 16.9699 39 15.7804V9.35999C39 8.53124 38.3516 7.85362 37.5375 7.80487ZM19.5098 3.43687L34.0275 5.28937V7.79999H4.97253V5.28937L19.5098 3.43687ZM34.0275 35.4949H25.74V28.86C25.74 27.9971 25.0429 27.3 24.18 27.3H14.82C13.9571 27.3 13.26 27.9971 13.26 28.86V35.4949H4.97253V23.6876C5.1139 23.7559 5.26015 23.8241 5.41128 23.8826C6.4984 24.3409 7.65377 24.57 8.84327 24.57C10.0328 24.57 11.1833 24.3409 12.2753 23.8826C12.948 23.5999 13.5818 23.2391 14.1619 22.8052C14.1716 22.8004 14.1814 22.8004 14.1911 22.8052C14.7731 23.241 15.4068 23.6028 16.0778 23.8826C17.1649 24.3409 18.3203 24.57 19.5098 24.57C20.6993 24.57 21.8498 24.3409 22.9418 23.8826C23.6145 23.5999 24.2483 23.2391 24.8284 22.8052C24.8381 22.8004 24.8479 22.8004 24.8576 22.8052C25.4396 23.241 26.0733 23.6028 26.7443 23.8826C27.8314 24.3409 28.9868 24.57 30.1763 24.57C31.3658 24.57 32.5163 24.3409 33.6083 23.8826C33.7545 23.8192 33.9008 23.7559 34.047 23.6876V35.4949H34.0275ZM35.49 15.7804C35.49 18.6956 33.1013 21.06 30.1616 21.06C28.1726 21.06 26.4371 19.9826 25.5206 18.3836C25.3793 18.1399 25.1696 13.2844 24.8869 13.2844H24.8576C24.5798 13.2844 24.2775 18.1399 24.1361 18.3836C23.6684 19.1993 22.9931 19.8766 22.1788 20.3467C21.3645 20.8167 20.4403 21.0629 19.5 21.06C17.5159 21.06 15.7853 19.9875 14.8688 18.3934C14.7225 18.1447 14.4788 13.2844 14.1911 13.2844C13.9035 13.2844 13.6159 18.1447 13.4745 18.3934C13.0041 19.2059 12.3279 19.8802 11.514 20.3483C10.7001 20.8164 9.7773 21.0619 8.8384 21.06C5.89878 21.06 3.51003 18.6956 3.51003 15.7804V11.3344C3.51003 11.3197 3.51978 11.31 3.5344 11.31H35.4656C35.4803 11.31 35.49 11.3197 35.49 11.3344V15.7804Z" fill="#600D2D"/>
<path d="M11.7858 15.033C11.7858 15.033 11.4258 15.36 10.8242 15.7501C10.6601 14.7959 10.2048 13.618 9.30324 12.1797C9.30324 12.1797 9.00843 13.7225 8.02659 15.1827C7.59813 14.5218 7.4143 14.0029 7.4143 14.0029C4.32498 17.0819 6.88584 19.2637 8.49413 19.2637C10.5584 19.2637 12.375 18.2765 11.7858 15.033ZM8.59992 19.0667C8.15009 19.0667 7.14605 18.7531 6.66068 17.3096C6.66068 17.3096 6.83507 17.3988 7.11866 17.5021C7.13023 17.0031 7.33083 16.3644 7.84406 15.5587C7.84406 15.5587 7.97275 15.9047 8.27264 16.3453C8.95991 15.3717 9.16629 14.3428 9.16629 14.3428C9.79747 15.3021 10.1161 16.0876 10.2311 16.7238C10.6522 16.4636 10.9042 16.2454 10.9042 16.2454C10.8755 16.8857 10.7519 17.3875 10.573 17.7797C10.8546 17.7335 11.0326 17.6844 11.0326 17.6844C10.2218 18.8294 9.4036 19.0667 8.59992 19.0667Z" fill="#0E2E61"/>
<path d="M7.63566 17.1212C7.63566 17.1212 7.96684 17.5729 8.21867 17.4638C8.21867 17.4638 8.69743 16.7199 9.38446 16.3063C9.38446 16.3063 9.24337 17.4405 9.40559 17.6409C9.62071 17.9075 10.2036 17.3453 10.2036 17.3453C10.2036 18.0155 9.46793 18.8599 8.80971 18.8599C8.15622 18.8599 7.22975 18.133 7.63566 17.1212ZM10.9348 14.0827C11.1828 13.7236 11.3514 13.3558 11.3514 13.3558C11.7674 14.0377 11.5219 14.4523 11.3392 14.5878C11.0939 14.7698 10.6485 14.4977 10.9348 14.0827M6.40777 13.9661C6.16503 13.5499 6.13775 13.0313 6.13775 13.0313C5.54471 13.9223 5.77635 14.4076 5.97364 14.5545C6.23835 14.7516 6.68794 14.447 6.40777 13.9661M7.78749 13.0405C7.81772 12.7608 7.70048 12.4707 7.70048 12.4707C8.26295 12.8325 8.25622 13.1476 8.1829 13.2702C8.08408 13.4348 7.75243 13.3636 7.78749 13.0405" fill="#0E2E61"/>
<path d="M33.0407 15.033C33.0407 15.033 32.6807 15.36 32.0791 15.7501C31.9149 14.7959 31.4597 13.618 30.5581 12.1797C30.5581 12.1797 30.2633 13.7225 29.2815 15.1827C28.853 14.5218 28.6692 14.0029 28.6692 14.0029C25.5799 17.0819 28.1407 19.2637 29.749 19.2637C31.8133 19.2637 33.6299 18.2765 33.0407 15.033ZM29.8548 19.0667C29.405 19.0667 28.4009 18.7531 27.9156 17.3096C27.9156 17.3096 28.0899 17.3988 28.3735 17.5021C28.3851 17.0031 28.5857 16.3644 29.0989 15.5587C29.0989 15.5587 29.2276 15.9047 29.5275 16.3453C30.2148 15.3717 30.4212 14.3428 30.4212 14.3428C31.0524 15.3021 31.371 16.0876 31.486 16.7238C31.907 16.4636 32.1591 16.2454 32.1591 16.2454C32.1304 16.8857 32.0068 17.3875 31.8279 17.7797C32.1095 17.7335 32.2874 17.6844 32.2874 17.6844C31.4767 18.8294 30.6585 19.0667 29.8548 19.0667Z" fill="#0E2E61"/>
<path d="M28.8908 17.1212C28.8908 17.1212 29.222 17.5729 29.4738 17.4638C29.4738 17.4638 29.9526 16.7199 30.6396 16.3063C30.6396 16.3063 30.4985 17.4405 30.6607 17.6409C30.8758 17.9075 31.4587 17.3453 31.4587 17.3453C31.4587 18.0155 30.7231 18.8599 30.0648 18.8599C29.4113 18.8599 28.4849 18.133 28.8908 17.1212ZM32.1899 14.0827C32.438 13.7236 32.6066 13.3558 32.6066 13.3558C33.0225 14.0377 32.7771 14.4523 32.5943 14.5878C32.3491 14.7698 31.9036 14.4977 32.1899 14.0827M27.6629 13.9661C27.4202 13.5499 27.3929 13.0313 27.3929 13.0313C26.7998 13.9223 27.0315 14.4076 27.2288 14.5545C27.4935 14.7516 27.9431 14.447 27.6629 13.9661M29.0426 13.0405C29.0728 12.7608 28.9556 12.4707 28.9556 12.4707C29.5181 12.8325 29.5113 13.1476 29.438 13.2702C29.3392 13.4348 29.0076 13.3636 29.0426 13.0405" fill="#0E2E61"/>
</svg>
