<svg width="32" height="18" viewBox="0 0 32 18" fill="none" xmlns="http://www.w3.org/2000/svg">
<path d="M31.8685 5.93119L30.5539 10.4407C30.3918 10.9389 29.7281 11.2417 28.9626 11.2474H9.79746L9.41696 12.53H27.6827C28.6444 12.5737 29.2969 12.9811 29.3086 13.5022C29.2386 14.0761 28.5573 14.4673 27.6827 14.4744H7.47967C6.38704 14.4156 5.73551 13.8948 5.85374 13.316L6.71859 10.5027L5.40401 2.60072L1.66786 1.89745C0.754844 1.68068 0.382203 1.1868 0.595443 0.676985C0.950007 0.14566 1.7996 -0.097095 2.63649 0.0357245L7.41047 0.945904C8.05361 1.09006 8.42359 1.40486 8.51748 1.77334L8.79422 3.34546L30.4501 4.79347C31.4451 4.92235 31.9853 5.39363 31.8685 5.93119ZM12.4299 16.5158C12.4299 17.3355 11.3186 18 9.94777 18C8.57693 18 7.46567 17.3355 7.46567 16.5158C7.46567 15.6961 8.57696 15.0316 9.94777 15.0316C11.3186 15.0316 12.4299 15.6961 12.4299 16.5158ZM27.2481 16.5158C27.2481 17.3355 26.1368 18 24.7659 18C23.3951 18 22.2838 17.3355 22.2838 16.5158C22.2838 15.6961 23.3951 15.0316 24.7659 15.0316C26.1368 15.0316 27.2481 15.6961 27.2481 16.5158Z" fill="#600D2D"/>
</svg>
