<svg width="30" height="27" viewBox="0 0 30 27" fill="none" xmlns="http://www.w3.org/2000/svg">
<path d="M28.5484 6.09381C28.0984 5.05115 27.4496 4.10629 26.6383 3.31215C25.8264 2.51563 24.8691 1.88265 23.8186 1.44763C22.7292 0.994743 21.5608 0.762931 20.3811 0.765649C18.7262 0.765649 17.1115 1.21918 15.7084 2.07585C15.3727 2.28078 15.0538 2.50587 14.7517 2.75111C14.4495 2.50587 14.1306 2.28078 13.795 2.07585C12.3918 1.21918 10.7771 0.765649 9.1222 0.765649C7.93051 0.765649 6.77575 0.994094 5.68477 1.44763C4.63071 1.88436 3.68072 2.51259 2.865 3.31215C2.05263 4.1054 1.40368 5.05047 0.954942 6.09381C0.488337 7.17893 0.25 8.33123 0.25 9.51713C0.25 10.6358 0.478267 11.8016 0.931444 12.9875C1.31077 13.9785 1.85458 15.0065 2.54945 16.0446C3.65051 17.6874 5.16445 19.4008 7.0443 21.1376C10.1595 24.0167 13.2444 26.0055 13.3753 26.0862L14.1709 26.5968C14.5234 26.8219 14.9766 26.8219 15.329 26.5968L16.1246 26.0862C16.2555 26.0022 19.3371 24.0167 22.4557 21.1376C24.3355 19.4008 25.8495 17.6874 26.9505 16.0446C27.6454 15.0065 28.1926 13.9785 28.5685 12.9875C29.0217 11.8016 29.25 10.6358 29.25 9.51713C29.2533 8.33123 29.015 7.17893 28.5484 6.09381V6.09381ZM14.7517 23.9394C14.7517 23.9394 2.80122 16.2764 2.80122 9.51713C2.80122 6.09381 5.63106 3.31887 9.1222 3.31887C11.5761 3.31887 13.7043 4.68954 14.7517 6.6918C15.799 4.68954 17.9273 3.31887 20.3811 3.31887C23.8723 3.31887 26.7021 6.09381 26.7021 9.51713C26.7021 16.2764 14.7517 23.9394 14.7517 23.9394Z" fill="#FF0000"/>
</svg>
