<svg width="23" height="20" viewBox="0 0 23 20" fill="none" xmlns="http://www.w3.org/2000/svg">
<path d="M20.2955 14.977C19.7429 14.5284 19.2052 14.0669 18.6828 13.593C18.2439 13.215 17.9797 12.94 17.9797 12.94L14.6764 11.603C15.9989 10.3316 16.7287 8.69499 16.7291 7C16.7291 3.141 13.0248 0 8.47098 0C3.9172 0 0.21283 3.141 0.21283 7C0.21283 10.859 3.9172 14 8.47098 14C10.5509 14 12.4467 13.34 13.9013 12.261L15.4786 15.061C15.4786 15.061 15.803 15.285 16.249 15.657C16.7055 16.02 17.306 16.511 17.8817 17.024L19.4838 18.416L20.1964 19.062L22.6986 16.941L21.9365 16.337C21.4894 15.965 20.8924 15.471 20.2955 14.977V14.977ZM8.47098 12C5.21845 12 2.5723 9.757 2.5723 7C2.5723 4.243 5.21845 2 8.47098 2C11.7235 2 14.3697 4.243 14.3697 7C14.3697 9.757 11.7235 12 8.47098 12Z" fill="white"/>
</svg>
